#!OML:ASF F:\VICON\USERDATA\INSTALL\rory3\rory3.ASF
:FULLY-SPECIFIED
:DEGREES
1544
root 3.22138 14.2966 -13.1582 -363.048 -44.855 363.53
lowerback 23.0107 -2.8736 -5.30768
upperback 0.561342 -4.8913 2.8464
thorax -11.5574 -1.90676 7.83498
lowerneck -15.5236 0.726954 1.83556
upperneck 17.1511 1.03881 -2.68194
head 7.88377 0.32707 -1.07742
rclavicle 2.41523e-014 -2.38542e-015
rhumerus 24.5377 7.22744 -46.5864
rradius 119.498
rwrist -22.5408
rhand -3.23484 18.9368
rfingers 7.12502
rthumb 22.4886 -9.77369
lclavicle 2.41523e-014 -2.38542e-015
lhumerus 14.0997 -68.2534 64.5876
lradius 28.5655
lwrist -7.22691
lhand -9.31884 16.5742
lfingers 7.12502
lthumb 16.6395 45.881
rfemur -36.2131 -18.8823 0.0912166
rtibia 62.5643
rfoot -14.4682 -3.68832
rtoes -11.8322
lfemur -36.3651 33.1778 -5.9948
ltibia 65.5096
lfoot -14.9694 6.50182
ltoes 9.84861
1545
root 3.29691 14.2883 -13.1092 -362.916 -44.564 363.413
lowerback 22.8081 -2.75189 -5.42346
upperback 0.613657 -4.75394 2.82216
thorax -11.4007 -1.84862 7.80954
lowerneck -15.6084 0.658048 1.94158
upperneck 17.1011 0.927646 -2.72835
head 7.88004 0.276983 -1.12251
rclavicle 3.37934e-015 1.82882e-014
rhumerus 24.4753 7.76022 -47.2213
rradius 119.284
rwrist -21.4836
rhand -3.56452 19.2786
rfingers 7.12502
rthumb 22.1721 -9.46984
lclavicle 3.37934e-015 1.82882e-014
lhumerus 14.4051 -68.1166 64.0533
lradius 28.5838
lwrist -7.18619
lhand -9.29467 17.1198
lfingers 7.12502
lthumb 16.6628 46.4246
rfemur -35.7894 -18.8892 -0.299785
rtibia 61.9062
rfoot -14.0883 -3.62279
rtoes -11.1786
lfemur -36.9741 33.1848 -6.45428
ltibia 65.9743
lfoot -15.1558 6.43498
ltoes 8.55314
1546
root 3.37036 14.3138 -13.041 -363.047 -44.4037 363.275
lowerback 22.567 -2.72376 -5.09178
upperback 0.866396 -4.65193 2.52254
thorax -11.0481 -1.8573 7.20688
lowerneck -15.699 0.647397 2.15635
upperneck 16.9987 0.817021 -2.50872
head 7.85911 0.26131 -1.09683
rclavicle 6.7388e-014 -3.18055e-014
rhumerus 24.446 8.27323 -48.2067
rradius 119.045
rwrist -19.7433
rhand -4.0242 19.3044
rfingers 7.12502
rthumb 21.7307 -9.49588
lclavicle 6.7388e-014 -3.18055e-014
lhumerus 14.8325 -67.4741 63.3871
lradius 27.9592
lwrist -7.3433
lhand -9.55008 16.7519
lfingers 7.12502
lthumb 16.4169 46.0772
rfemur -34.7661 -18.6829 -0.733406
rtibia 60.8211
rfoot -13.7011 -3.76295
rtoes -10.8564
lfemur -36.8446 33.0918 -6.72399
ltibia 66.1163
lfoot -15.462 6.2768
ltoes 8.83899
1547
root 3.45108 14.3138 -12.9794 -362.857 -44.255 362.887
lowerback 22.904 -2.58531 -5.33942
upperback 0.65405 -4.50442 2.93015
thorax -11.4457 -1.73177 7.8169
lowerneck -15.4597 0.662707 1.75528
upperneck 16.9559 0.953468 -2.59636
head 7.80481 0.292203 -1.04417
rclavicle 4.17448e-015 -1.74931e-014
rhumerus 24.7496 9.52147 -48.4583
rradius 118.641
rwrist -18.1411
rhand -4.25977 19.7577
rfingers 7.12502
rthumb 21.5045 -9.06854
lclavicle 4.17448e-015 -1.74931e-014
lhumerus 11.5598 -64.9687 67.6291
lradius 26.7221
lwrist -9.02228
lhand -9.75513 16.2623
lfingers 7.12502
lthumb 16.2194 45.6038
rfemur -34.2483 -18.5742 -0.914212
rtibia 60.0695
rfoot -13.2322 -4.10103
rtoes -11.1403
lfemur -37.2211 32.9886 -6.91692
ltibia 66.574
lfoot -15.854 6.0913
ltoes 9.92868
1548
root 3.52585 14.3307 -12.9309 -362.838 -43.8267 362.78
lowerback 22.8552 -2.61683 -5.23272
upperback 0.726264 -4.53933 2.7133
thorax -11.3571 -1.76799 7.50805
lowerneck -15.5147 0.637941 1.96053
upperneck 17.0364 0.825303 -2.36478
head 7.83791 0.267293 -1.01603
rclavicle 7.59357e-014 7.95139e-015
rhumerus 24.7038 9.79948 -49.4897
rradius 118.443
rwrist -17.5758
rhand -4.05426 19.7721
rfingers 7.12502
rthumb 21.7019 -9.03148
lclavicle 7.59357e-014 7.95139e-015
lhumerus 12.1945 -64.955 66.3552
lradius 26.5591
lwrist -8.55752
lhand -10.203 16.2326
lfingers 7.12502
lthumb 15.7881 45.6087
rfemur -33.4803 -18.561 -1.30482
rtibia 59.2275
rfoot -12.9525 -4.27072
rtoes -10.9852
lfemur -37.4936 32.7085 -7.37448
ltibia 66.7725
lfoot -16.0958 5.71604
ltoes 12.4429
1549
root 3.60009 14.3289 -12.8667 -362.467 -43.5755 362.303
lowerback 22.8028 -2.56233 -5.14528
upperback 0.654751 -4.41373 2.96658
thorax -11.4154 -1.70087 7.70993
lowerneck -15.7236 0.578519 1.80534
upperneck 17.2838 0.807398 -2.49746
head 7.95657 0.232859 -1.038
rclavicle 4.76089e-014 -9.54166e-015
rhumerus 24.9335 10.6699 -49.8652
rradius 118.046
rwrist -16.6808
rhand -4.29106 19.8328
rfingers 7.12502
rthumb 21.4744 -8.99687
lclavicle 4.76089e-014 -9.54166e-015
lhumerus 9.33657 -61.4805 70.7483
lradius 24.8141
lwrist -11.7117
lhand -10.4122 16.3707
lfingers 7.12502
lthumb 15.5867 45.7627
rfemur -32.9219 -18.4139 -1.43458
rtibia 58.4395
rfoot -12.6784 -4.4493
rtoes -10.3875
lfemur -38.0548 32.8096 -7.57424
ltibia 67.2817
lfoot -16.3296 5.42577
ltoes 12.6146
1550
root 3.6704 14.3259 -12.8066 -362.562 -43.2865 362.269
lowerback 22.7683 -2.49918 -5.2967
upperback 0.676642 -4.36504 2.99546
thorax -11.3655 -1.67254 7.81128
lowerneck -15.5673 0.625202 1.67245
upperneck 17.1264 0.884696 -2.39968
head 7.87744 0.27242 -0.973884
rclavicle 4.78077e-014 1.19271e-014
rhumerus 25.0527 11.25 -50.2005
rradius 117.946
rwrist -16.2754
rhand -4.29054 19.7478
rfingers 7.12502
rthumb 21.4749 -9.08185
lclavicle 4.78077e-014 1.19271e-014
lhumerus 11.8076 -64.4317 66.813
lradius 25.9479
lwrist -7.98039
lhand -10.5243 16.7227
lfingers 7.12502
lthumb 15.4787 46.123
rfemur -32.1874 -18.4475 -1.97993
rtibia 57.7727
rfoot -12.5467 -4.28079
rtoes -7.742
lfemur -38.2557 32.8631 -8.0135
ltibia 67.6912
lfoot -16.7177 5.43704
ltoes 11.1958
1551
root 3.73531 14.3189 -12.7645 -362.796 -42.8304 362.641
lowerback 22.6471 -2.41242 -5.63078
upperback 0.742174 -4.36333 2.70305
thorax -11.2233 -1.67257 7.65378
lowerneck -15.7115 0.649154 2.02803
upperneck 17.0526 0.777949 -2.13271
head 7.87633 0.272339 -0.955494
rclavicle -2.69353e-014 -1.11319e-014
rhumerus 25.0392 11.6602 -51.2238
rradius 117.464
rwrist -15.2697
rhand -4.99313 20.1671
rfingers 7.12502
rthumb 20.8 -8.73801
lclavicle -2.69353e-014 -1.11319e-014
lhumerus 11.6247 -63.3752 66.8665
lradius 25.5928
lwrist -8.62552
lhand -10.3691 16.9224
lfingers 7.12502
lthumb 15.6282 46.3111
rfemur -31.6265 -18.5226 -2.73983
rtibia 57.0589
rfoot -12.1889 -4.60746
rtoes -9.10173
lfemur -38.7309 32.6172 -8.90012
ltibia 67.9974
lfoot -16.9393 5.48681
ltoes 10.1649
1552
root 3.80762 14.3504 -12.6938 -362.206 -42.9143 361.478
lowerback 22.7264 -2.3077 -4.98656
upperback 0.761049 -4.03047 2.98689
thorax -11.3227 -1.53852 7.51296
lowerneck -15.8168 0.637856 2.04295
upperneck 17.3814 0.783019 -2.25418
head 8.00497 0.261528 -0.999536
rclavicle -9.78021e-014 1.03368e-014
rhumerus 25.0248 12.1694 -51.7441
rradius 117.34
rwrist -15.3932
rhand -4.72321 20.0482
rfingers 7.12502
rthumb 21.0593 -8.82828
lclavicle -9.78021e-014 1.03368e-014
lhumerus 10.2394 -61.4349 68.7378
lradius 24.7113
lwrist -9.95066
lhand -10.4016 16.3142
lfingers 7.12502
lthumb 15.5969 45.7054
rfemur -30.6332 -17.7907 -2.18273
rtibia 55.7752
rfoot -12.0706 -4.7048
rtoes -6.01671
lfemur -38.5609 32.7017 -8.27001
ltibia 68.1719
lfoot -17.2714 5.24118
ltoes 11.3839
1553
root 3.87574 14.3405 -12.6736 -361.9 -42.2046 361.275
lowerback 22.979 -2.35482 -5.24215
upperback 0.546271 -4.15627 3.10116
thorax -11.662 -1.55142 7.86685
lowerneck -15.6516 0.714968 2.13678
upperneck 17.3675 0.871923 -2.27337
head 7.97367 0.308696 -1.01121
rclavicle 6.90777e-014 -8.74653e-015
rhumerus 25.0605 12.6965 -52.5361
rradius 117.108
rwrist -15.3156
rhand -4.07096 19.926
rfingers 7.12502
rthumb 21.6858 -8.87946
lclavicle 6.90777e-014 -8.74653e-015
lhumerus 10.4086 -61.9727 68.113
lradius 24.8707
lwrist -8.71814
lhand -10.5888 16.8887
lfingers 7.12502
lthumb 15.4166 46.2938
rfemur -30.0907 -17.8465 -2.42818
rtibia 55.1187
rfoot -12.2959 -4.65813
rtoes -2.37814
lfemur -39.4987 32.5389 -8.77504
ltibia 68.5166
lfoot -17.1872 5.02923
ltoes 11.3127
1554
root 3.93328 14.358 -12.6089 -361.816 -42.2411 360.908
lowerback 22.7268 -2.21005 -4.93269
upperback 0.652373 -3.87811 3.06133
thorax -11.4698 -1.45566 7.52859
lowerneck -15.416 0.62654 1.90916
upperneck 17.0419 0.765647 -2.06196
head 7.81957 0.266947 -0.91379
rclavicle 1.42131e-014 2.38542e-015
rhumerus 24.9855 13.2049 -53.1143
rradius 116.752
rwrist -13.8846
rhand -5.47569 20.1579
rfingers 7.12502
rthumb 20.3363 -8.79735
lclavicle 1.42131e-014 2.38542e-015
lhumerus 9.17322 -59.6743 69.9546
lradius 23.9752
lwrist -10.79
lhand -10.5261 16.4001
lfingers 7.12502
lthumb 15.477 45.8006
rfemur -29.3133 -17.3476 -2.46099
rtibia 54.0659
rfoot -12.141 -4.96569
rtoes -3.43513
lfemur -39.4244 32.5918 -8.76411
ltibia 68.7072
lfoot -17.5006 4.88261
ltoes 12.0174
